# xmcd
#
# Track frame offsets: 
#        150
#        13787
#        25160
#        36200
#        47455
#        56967
#        68060
#        78072
#        91105
#        103685
#
# Disc length: 1491 seconds
#
# Revision: 0
# Processed by: cddbd v1.4PL0 Copyright (c) Steve Scherf et al.
# Submitted via: ExactAudioCopy v0.95a2
#
DISCID=7205d10a
DTITLE=Tennessee Ernie Ford - America The Beautiful
DYEAR=1970
DGENRE=Country
TTITLE0=America, The Beautiful
TTITLE1=Battle Hymn of The Republic
TTITLE2=America
TTITLE3=This Is My Country
TTITLE4=God Bless America
TTITLE5=This Land Is Your Land
TTITLE6=Our Land, O Lord
TTITLE7=America, I Love You
TTITLE8=Pledge of Allegiance
TTITLE9=Star Spangled Banner
EXTD=
EXTT0=
EXTT1=
EXTT2=
EXTT3=
EXTT4=
EXTT5=
EXTT6=
EXTT7=
EXTT8=
EXTT9=
PLAYORDER=
